<?xml version="1.0" encoding="utf-8"?>
<!-- Generator: Adobe Illustrator 22.0.0, SVG Export Plug-In . SVG Version: 6.00 Build 0)  -->
<svg version="1.1" id="Layer_1" xmlns="http://www.w3.org/2000/svg" xmlns:xlink="http://www.w3.org/1999/xlink" x="0px" y="0px"
	 viewBox="0 0 123.9 87.7" style="enable-background:new 0 0 123.9 87.7;" xml:space="preserve">
<style type="text/css">
	.st0{fill:#FFFFFF;}
</style>
<path class="st0" d="M120.7,0.1H95.5c-1.7,0-3,1.3-3,3V21h-0.9v-4.5c0-1.7-1.3-3-3-3H46.2c-1.7,0-3,1.3-3,3V21H31.3V3.1
	c0-1.7-1.3-3-3-3H3.1c-1.7,0-3,1.3-3,3v57.1c0,1.7,1.3,3,3,3h25.3c1.7,0,3-1.3,3-3V42.3h0.9v0.3v8.9l0,0c0,0.2,0,0.4,0.1,0.6v0.1
	c0,0.2,0.1,0.3,0.2,0.5c0,0.1,0.1,0.1,0.1,0.2c0.1,0.1,0.1,0.3,0.2,0.4c0,0.1,0.1,0.1,0.1,0.2c0.1,0.1,0.2,0.2,0.3,0.3
	c0,0,0,0,0,0.1L46,65.3v19.4c0,1.7,1.3,3,3,3h31.5c1.7,0,3-1.3,3-3V65.5l7.9-21.8v-0.1c0-0.1,0.1-0.3,0.1-0.5c0-0.1,0-0.2,0-0.3
	s0-0.1,0-0.2v-0.3h0.9v17.9c0,1.7,1.3,3,3,3h25.3c1.7,0,3-1.3,3-3V3.1C123.7,1.5,122.4,0.1,120.7,0.1z M85.6,39.6h-7.5V19.5h7.5
	V39.6z M63,19.5h9.1v20.1H63V19.5z M57,19.5v11.2h-7.9V19.5H57z M38.3,48.5V36.7h18.1v11.8H38.3z M28.3,36.3c-1.7,0-3,1.3-3,3v17.9
	H6.1V6.1h19.3V24c0,1.7,1.3,3,3,3h14.8v3.6h-7.9c-1.7,0-3,1.3-3,3v2.6L28.3,36.3L28.3,36.3z M77.7,63.9c-0.1,0.3-0.2,0.7-0.2,1v16.7
	H52V63.9c0-0.9-0.4-1.7-1-2.2l-8-7.2h16.2c1.7,0,3-1.3,3-3v-5.9h22L77.7,63.9z M117.7,57.2H98.5V39.3c0-1.7-1.3-3-3-3h-3.9v-9.2h3.9
	c1.7,0,3-1.3,3-3v-18h19.3v51.1H117.7z"/>
</svg>
